# xmcd
#
# Track frame offsets:
#   150
#   14377
#   25482
#   37447
#   46472
#   59230
#
# Disc length: 950 seconds
#
# Revision: 0
# Processed by: cddbd v1.5.2PL0 Copyright (c) Steve Scherf et al.
# Submitted via: Media_Universe 3.0
#
DISCID=5a03b406
DTITLE=Shotgun Shadow - Shotgun Shadow - Six Shots From A Style Of Rhythm and Country Roll
DYEAR=1996
DGENRE=Country
TTITLE0=Shotgun Shadow - She Won't Dance
TTITLE1=Shotgun Shadow - If You've Got The Love
TTITLE2=Shotgun Shadow - Oh What A Thrill
TTITLE3=Shotgun Shadow - Dixiefried
TTITLE4=Shotgun Shadow - Jumping The Gun
TTITLE5=Shotgun Shadow - Devil's Hand
EXTD=
EXTT0=
EXTT1=
EXTT2=
EXTT3=
EXTT4=
EXTT5=
PLAYORDER=
